<svg xmlns="http://www.w3.org/2000/svg" xmlns:xlink="http://www.w3.org/1999/xlink" contentStyleType="text/css" height="619px" preserveAspectRatio="none" style="width:866px;height:619px;background:#FFFFFF;" version="1.1" viewBox="0 0 866 619" width="866px" zoomAndPan="magnify"><defs/><g><!--cluster 2567a5ec9705eb7ac2c984033e06189d--><g id="cluster_2567a5ec9705eb7ac2c984033e06189d"><polygon fill="none" points="16,24.15,26,14.15,139,14.15,139,501.48,129,511.48,16,511.48,16,24.15" style="stroke:#181818;stroke-width:1.0;"/><line style="stroke:#181818;stroke-width:1.0;" x1="129" x2="139" y1="24.15" y2="14.15"/><line style="stroke:#181818;stroke-width:1.0;" x1="16" x2="129" y1="24.15" y2="24.15"/><line style="stroke:#181818;stroke-width:1.0;" x1="129" x2="129" y1="24.15" y2="511.48"/><text fill="#000000" font-family="sans-serif" font-size="14" font-weight="bold" lengthAdjust="spacing" textLength="35" x="56" y="40.1451">Web</text></g><!--cluster d77d5e503ad1439f585ac494268b351b--><g id="cluster_d77d5e503ad1439f585ac494268b351b"><polygon fill="none" points="225,16,235,6,447,6,447,501.48,437,511.48,225,511.48,225,16" style="stroke:#181818;stroke-width:1.0;"/><line style="stroke:#181818;stroke-width:1.0;" x1="437" x2="447" y1="16" y2="6"/><line style="stroke:#181818;stroke-width:1.0;" x1="225" x2="437" y1="16" y2="16"/><line style="stroke:#181818;stroke-width:1.0;" x1="437" x2="437" y1="16" y2="511.48"/><text fill="#000000" font-family="sans-serif" font-size="14" font-weight="bold" lengthAdjust="spacing" textLength="21" x="321.5" y="31.9951">Db</text></g><!--cluster a2cfbb9ccd0d1b649cbf99669930092b--><g id="cluster_a2cfbb9ccd0d1b649cbf99669930092b"><polygon fill="none" points="471,16,481,6,849,6,849,501.48,839,511.48,471,511.48,471,16" style="stroke:#181818;stroke-width:1.0;"/><line style="stroke:#181818;stroke-width:1.0;" x1="839" x2="849" y1="16" y2="6"/><line style="stroke:#181818;stroke-width:1.0;" x1="471" x2="839" y1="16" y2="16"/><line style="stroke:#181818;stroke-width:1.0;" x1="839" x2="839" y1="16" y2="511.48"/><text fill="#000000" font-family="sans-serif" font-size="14" font-weight="bold" lengthAdjust="spacing" textLength="79" x="616.5" y="31.9951">Tesseract</text></g><!--entity 04a565d19766ebe0348853b17c395bd1--><g id="elem_04a565d19766ebe0348853b17c395bd1"><rect fill="#F1F1F1" height="78.8906" rx="2.5" ry="2.5" style="stroke:#181818;stroke-width:0.5;" width="74" x="34" y="54.15"/><rect fill="#F1F1F1" height="10" style="stroke:#181818;stroke-width:0.5;" width="15" x="88" y="59.15"/><rect fill="#F1F1F1" height="2" style="stroke:#181818;stroke-width:0.5;" width="4" x="86" y="61.15"/><rect fill="#F1F1F1" height="2" style="stroke:#181818;stroke-width:0.5;" width="4" x="86" y="65.15"/><text fill="#000000" font-family="sans-serif" font-size="14" font-weight="bold" lengthAdjust="spacing" textLength="34" x="49" y="87.1451">web</text><text fill="#000000" font-family="sans-serif" font-size="14" lengthAdjust="spacing" textLength="4" x="49" y="103.442">&#160;</text><text fill="#000000" font-family="sans-serif" font-size="14" lengthAdjust="spacing" textLength="4" x="49" y="119.7389">&#160;</text></g><!--entity fd433df176955d196b161b0a41a19970--><g id="elem_fd433df176955d196b161b0a41a19970"><ellipse cx="96" cy="231.19" fill="#F1F1F1" rx="8" ry="8" style="stroke:#181818;stroke-width:0.5;"/><text fill="#000000" font-family="sans-serif" font-size="14" lengthAdjust="spacing" textLength="36" x="78" y="261.1851">8000</text></g><!--entity 4ae8434c535c76df893919c2b9c9c766--><g id="elem_4ae8434c535c76df893919c2b9c9c766"><rect fill="#F1F1F1" height="39.2969" rx="2.5" ry="2.5" style="stroke:#181818;stroke-width:0.5;" width="70" x="32" y="456.19"/><polygon fill="#F1F1F1" points="85,461.19,85,475.19,97,475.19,97,467.19,91,461.19,85,461.19" style="stroke:#181818;stroke-width:0.5;"/><line style="stroke:#181818;stroke-width:0.5;" x1="91" x2="91" y1="461.19" y2="467.19"/><line style="stroke:#181818;stroke-width:0.5;" x1="97" x2="91" y1="467.19" y2="467.19"/><text fill="#000000" font-family="sans-serif" font-size="14" lengthAdjust="spacing" textLength="40" x="42" y="482.1851">/code</text></g><!--entity 355aeb7ac3f8fa43e8d94fbf0e4b8d6c--><g id="elem_355aeb7ac3f8fa43e8d94fbf0e4b8d6c"><rect fill="#F1F1F1" height="95.1875" rx="2.5" ry="2.5" style="stroke:#181818;stroke-width:0.5;" width="153" x="259.5" y="46"/><rect fill="#F1F1F1" height="10" style="stroke:#181818;stroke-width:0.5;" width="15" x="392.5" y="51"/><rect fill="#F1F1F1" height="2" style="stroke:#181818;stroke-width:0.5;" width="4" x="390.5" y="53"/><rect fill="#F1F1F1" height="2" style="stroke:#181818;stroke-width:0.5;" width="4" x="390.5" y="57"/><text fill="#000000" font-family="sans-serif" font-size="14" font-weight="bold" lengthAdjust="spacing" textLength="20" x="274.5" y="78.9951">db</text><text fill="#000000" font-family="sans-serif" font-size="14" lengthAdjust="spacing" textLength="4" x="274.5" y="95.292">&#160;</text><text fill="#000000" font-family="sans-serif" font-size="14" lengthAdjust="spacing" textLength="113" x="274.5" y="111.5889">image: postgres</text><text fill="#000000" font-family="sans-serif" font-size="14" lengthAdjust="spacing" textLength="4" x="274.5" y="127.8857">&#160;</text></g><!--entity d5baecb173d637b4e1f821d6b00b6f89--><g id="elem_d5baecb173d637b4e1f821d6b00b6f89"><rect fill="#F1F1F1" height="39.2969" rx="2.5" ry="2.5" style="stroke:#181818;stroke-width:0.5;" width="189" x="241.5" y="456.19"/><polygon fill="#F1F1F1" points="413.5,461.19,413.5,475.19,425.5,475.19,425.5,467.19,419.5,461.19,413.5,461.19" style="stroke:#181818;stroke-width:0.5;"/><line style="stroke:#181818;stroke-width:0.5;" x1="419.5" x2="419.5" y1="461.19" y2="467.19"/><line style="stroke:#181818;stroke-width:0.5;" x1="425.5" x2="419.5" y1="467.19" y2="467.19"/><text fill="#000000" font-family="sans-serif" font-size="14" lengthAdjust="spacing" textLength="159" x="251.5" y="482.1851">/var/lib/postgresql/data</text></g><!--entity 24ea034bd27e7e4bd609e7d0b6114418--><g id="elem_24ea034bd27e7e4bd609e7d0b6114418"><rect fill="#F1F1F1" height="95.1875" rx="2.5" ry="2.5" style="stroke:#181818;stroke-width:0.5;" width="346" x="487" y="46"/><rect fill="#F1F1F1" height="10" style="stroke:#181818;stroke-width:0.5;" width="15" x="813" y="51"/><rect fill="#F1F1F1" height="2" style="stroke:#181818;stroke-width:0.5;" width="4" x="811" y="53"/><rect fill="#F1F1F1" height="2" style="stroke:#181818;stroke-width:0.5;" width="4" x="811" y="57"/><text fill="#000000" font-family="sans-serif" font-size="14" font-weight="bold" lengthAdjust="spacing" textLength="75" x="502" y="78.9951">tesseract</text><text fill="#000000" font-family="sans-serif" font-size="14" lengthAdjust="spacing" textLength="4" x="502" y="95.292">&#160;</text><text fill="#000000" font-family="sans-serif" font-size="14" lengthAdjust="spacing" textLength="306" x="502" y="111.5889">image: tesseractshadow/tesseract4re:latest</text><text fill="#000000" font-family="sans-serif" font-size="14" lengthAdjust="spacing" textLength="4" x="502" y="127.8857">&#160;</text></g><!--entity 6d14e69ef2e72b613c9ea92a7a18ee58--><g id="elem_6d14e69ef2e72b613c9ea92a7a18ee58"><rect fill="#F1F1F1" height="39.2969" rx="2.5" ry="2.5" style="stroke:#181818;stroke-width:0.5;" width="166" x="577" y="456.19"/><polygon fill="#F1F1F1" points="726,461.19,726,475.19,738,475.19,738,467.19,732,461.19,726,461.19" style="stroke:#181818;stroke-width:0.5;"/><line style="stroke:#181818;stroke-width:0.5;" x1="732" x2="732" y1="461.19" y2="467.19"/><line style="stroke:#181818;stroke-width:0.5;" x1="738" x2="732" y1="467.19" y2="467.19"/><text fill="#000000" font-family="sans-serif" font-size="14" lengthAdjust="spacing" textLength="136" x="587" y="482.1851">/usr/share/tessdata</text></g><!--entity 1624c420083928ef3e240dd88f2e52f0--><g id="elem_1624c420083928ef3e240dd88f2e52f0"><ellipse cx="182" cy="366.19" fill="#F1F1F1" rx="8" ry="8" style="stroke:#181818;stroke-width:0.5;"/><text fill="#000000" font-family="sans-serif" font-size="14" lengthAdjust="spacing" textLength="36" x="164" y="396.1851">8000</text></g><!--entity 9c6653e1e46054746f465ecda05b9cdb--><g id="elem_9c6653e1e46054746f465ecda05b9cdb"><rect fill="#F1F1F1" height="31" rx="2.5" ry="2.5" style="stroke:#181818;stroke-width:0.5;" width="30" x="52" y="578.63"/><polygon fill="#F1F1F1" points="65,583.63,65,597.63,77,597.63,77,589.63,71,583.63,65,583.63" style="stroke:#181818;stroke-width:0.5;"/><line style="stroke:#181818;stroke-width:0.5;" x1="71" x2="71" y1="583.63" y2="589.63"/><line style="stroke:#181818;stroke-width:0.5;" x1="77" x2="71" y1="589.63" y2="589.63"/><line style="stroke:#181818;stroke-width:1.0;stroke-dasharray:1.0,2.0;" x1="53" x2="81" y1="591.63" y2="591.63"/></g><!--entity b86486e19bf8ab7f6de7806dc2438fad--><g id="elem_b86486e19bf8ab7f6de7806dc2438fad"><rect fill="#F1F1F1" height="39.2969" rx="2.5" ry="2.5" style="stroke:#181818;stroke-width:0.5;" width="69" x="301.5" y="574.48"/><polygon fill="#F1F1F1" points="353.5,579.48,353.5,593.48,365.5,593.48,365.5,585.48,359.5,579.48,353.5,579.48" style="stroke:#181818;stroke-width:0.5;"/><line style="stroke:#181818;stroke-width:0.5;" x1="359.5" x2="359.5" y1="579.48" y2="585.48"/><line style="stroke:#181818;stroke-width:0.5;" x1="365.5" x2="359.5" y1="585.48" y2="585.48"/><text fill="#000000" font-family="sans-serif" font-size="14" lengthAdjust="spacing" textLength="39" x="311.5" y="600.4751">./data</text></g><!--entity ecebb2d3f9e40fdf4b3fa81276dab233--><g id="elem_ecebb2d3f9e40fdf4b3fa81276dab233"><rect fill="#F1F1F1" height="39.2969" rx="2.5" ry="2.5" style="stroke:#181818;stroke-width:0.5;" width="74" x="623" y="574.48"/><polygon fill="#F1F1F1" points="680,579.48,680,593.48,692,593.48,692,585.48,686,579.48,680,579.48" style="stroke:#181818;stroke-width:0.5;"/><line style="stroke:#181818;stroke-width:0.5;" x1="686" x2="686" y1="579.48" y2="585.48"/><line style="stroke:#181818;stroke-width:0.5;" x1="692" x2="686" y1="585.48" y2="585.48"/><text fill="#000000" font-family="sans-serif" font-size="14" lengthAdjust="spacing" textLength="44" x="633" y="600.4751">./code</text></g><!--link 04a565d19766ebe0348853b17c395bd1 to fd433df176955d196b161b0a41a19970--><g id="link_04a565d19766ebe0348853b17c395bd1_fd433df176955d196b161b0a41a19970"><path codeLine="33" d="M78.16,133.45 C83.88,164.44 91.42,205.36 94.55,222.31 " fill="none" id="04a565d19766ebe0348853b17c395bd1-fd433df176955d196b161b0a41a19970" style="stroke:#181818;stroke-width:1.0;"/></g><!--link fd433df176955d196b161b0a41a19970 to 1624c420083928ef3e240dd88f2e52f0--><g id="link_fd433df176955d196b161b0a41a19970_1624c420083928ef3e240dd88f2e52f0"><path codeLine="34" d="M101.12,240.11 C116.45,263.82 161.86,334.04 177.01,357.47 " fill="none" id="fd433df176955d196b161b0a41a19970-1624c420083928ef3e240dd88f2e52f0" style="stroke:#181818;stroke-width:1.0;"/></g><!--link 4ae8434c535c76df893919c2b9c9c766 to 9c6653e1e46054746f465ecda05b9cdb--><g id="link_4ae8434c535c76df893919c2b9c9c766_9c6653e1e46054746f465ecda05b9cdb"><path codeLine="35" d="M67,495.78 C67,518.82 67,557.24 67,578.26 " fill="none" id="4ae8434c535c76df893919c2b9c9c766-9c6653e1e46054746f465ecda05b9cdb" style="stroke:#181818;stroke-width:1.0;"/><text fill="#000000" font-family="sans-serif" font-size="13" lengthAdjust="spacing" textLength="14" x="68" y="540.5469">rw</text></g><!--link 04a565d19766ebe0348853b17c395bd1 to 4ae8434c535c76df893919c2b9c9c766--><g id="link_04a565d19766ebe0348853b17c395bd1_4ae8434c535c76df893919c2b9c9c766"><path codeLine="36" d="M62.44,133.47 C58.39,153.83 54.01,179.23 52,202.19 C43.66,297.35 56.8855,405.6812 63.2655,450.0212 " fill="none" id="04a565d19766ebe0348853b17c395bd1-to-4ae8434c535c76df893919c2b9c9c766" style="stroke:#181818;stroke-width:1.0;stroke-dasharray:7.0,7.0;"/><polygon fill="#181818" points="64.12,455.96,66.7974,446.4821,63.4079,451.011,58.879,447.6214,64.12,455.96" style="stroke:#181818;stroke-width:1.0;"/><text fill="#000000" font-family="sans-serif" font-size="13" lengthAdjust="spacing" textLength="23" x="51" y="303.2569">use</text></g><!--link d5baecb173d637b4e1f821d6b00b6f89 to b86486e19bf8ab7f6de7806dc2438fad--><g id="link_d5baecb173d637b4e1f821d6b00b6f89_b86486e19bf8ab7f6de7806dc2438fad"><path codeLine="37" d="M336,495.78 C336,517.4 336,552.57 336,574.2 " fill="none" id="d5baecb173d637b4e1f821d6b00b6f89-b86486e19bf8ab7f6de7806dc2438fad" style="stroke:#181818;stroke-width:1.0;"/><text fill="#000000" font-family="sans-serif" font-size="13" lengthAdjust="spacing" textLength="14" x="337" y="540.5469">rw</text></g><!--link 355aeb7ac3f8fa43e8d94fbf0e4b8d6c to d5baecb173d637b4e1f821d6b00b6f89--><g id="link_355aeb7ac3f8fa43e8d94fbf0e4b8d6c_d5baecb173d637b4e1f821d6b00b6f89"><path codeLine="38" d="M336,141.6 C336,225.65 336,392.27 336,449.75 " fill="none" id="355aeb7ac3f8fa43e8d94fbf0e4b8d6c-to-d5baecb173d637b4e1f821d6b00b6f89" style="stroke:#181818;stroke-width:1.0;stroke-dasharray:7.0,7.0;"/><polygon fill="#181818" points="336,455.75,340,446.75,336,450.75,332,446.75,336,455.75" style="stroke:#181818;stroke-width:1.0;"/><text fill="#000000" font-family="sans-serif" font-size="13" lengthAdjust="spacing" textLength="23" x="337" y="303.2569">use</text></g><!--link 6d14e69ef2e72b613c9ea92a7a18ee58 to ecebb2d3f9e40fdf4b3fa81276dab233--><g id="link_6d14e69ef2e72b613c9ea92a7a18ee58_ecebb2d3f9e40fdf4b3fa81276dab233"><path codeLine="39" d="M660,495.78 C660,517.4 660,552.57 660,574.2 " fill="none" id="6d14e69ef2e72b613c9ea92a7a18ee58-ecebb2d3f9e40fdf4b3fa81276dab233" style="stroke:#181818;stroke-width:1.0;"/><text fill="#000000" font-family="sans-serif" font-size="13" lengthAdjust="spacing" textLength="14" x="661" y="540.5469">rw</text></g><!--link 24ea034bd27e7e4bd609e7d0b6114418 to 6d14e69ef2e72b613c9ea92a7a18ee58--><g id="link_24ea034bd27e7e4bd609e7d0b6114418_6d14e69ef2e72b613c9ea92a7a18ee58"><path codeLine="40" d="M660,141.6 C660,225.65 660,392.27 660,449.75 " fill="none" id="24ea034bd27e7e4bd609e7d0b6114418-to-6d14e69ef2e72b613c9ea92a7a18ee58" style="stroke:#181818;stroke-width:1.0;stroke-dasharray:7.0,7.0;"/><polygon fill="#181818" points="660,455.75,664,446.75,660,450.75,656,446.75,660,455.75" style="stroke:#181818;stroke-width:1.0;"/><text fill="#000000" font-family="sans-serif" font-size="13" lengthAdjust="spacing" textLength="23" x="661" y="303.2569">use</text></g><!--SRC=[XPDDRXin38NtSug1Lws1sFgXA2cBhdg40bqKNP0YbHfmx7Jir0MAthtAn7QTRBGSZSZtFkgHjjlzwN7pUxDx67PxqN7nLNanqc5q0IC5BJcQe1ofk98J6E_Le4rPnZ_3MFQFJ_kTxewZ0GeOnEQ8gAp6Gqh1iut5vy1Yns_3SdbINYw7OVW-VFWuBf8nPbQg0jvBjH5pU6c1RD6o8R1aSvCVQ3fkAfNZk5YNvd4k0j847ahmeKIKchBFDXV7kUHsWCFVCy_dLno9KO86uqai-5n32bGWWyF4FbX-Y-D3e1dQrrG9l2R9KBaQ1Kw2PSQHcMRpI0zwFpxj3yU7IGylT3T-Vz6qtcvuVVdzSxiMEjAhfS2afSt82_h8eBOcPmNP6CO6T4NueeU3JgtXN4QkL6wOHOnOHiY5Qyw8ENjZidj7ua2flGQBYngRUq6JDKfJi1R0ffdaU16u0RgU7NwGx4_hwpTCUh-bzdbyn_fycDRjygJptIicje4hPgrEeskolcIbx2YIJQeXDSmtSR3ee80p9ldiabQl3en8Igr1SFKs3glLN94BOl1g5T04Y80Li2LNo8Gs9-7RYl_ZvuIGK6tcceXZHT6O34fnuDkZovkgQ-wqABCJNxE2gLA1VQLaNSiWiVD-w6x2dTpr8z-xC7VfJggt97ENtlJ6-t4ndHPziDLALgjFtSrywVTyqCNGo__ihlTA5tVTZJsxwufUtFLYExlhfU7Yhhk5PtTTqRExVm00]--></g></svg>